# xmcd
#
# Track frame offsets: 
#        150
#        18827
#        42627
#        67477
#        89772
#        120952
#        141290
#        192525
#        209452
#        238792
#        275837
#        301445
#
# Disc length: 4290 seconds
#
# Revision: 2
# Processed by: cddbd v1.5.2PL0 Copyright (c) Steve Scherf et al.
# Submitted via: ExactAudioCopy v0.99pb4
#
DISCID=c210c00c
DTITLE=Gospel pour 100 voix - Gospel pour 100 voix
DYEAR=1999
DGENRE=Gospel
TTITLE0=Kumbaya, My Lord
TTITLE1=Have a Little Talk with Jesus
TTITLE2=Precious Lord
TTITLE3=Can't Nobody
TTITLE4=Lean on Me
TTITLE5=Many Rivers to Cross
TTITLE6=His Eye Is On the Sparrow
TTITLE7=When the Saints
TTITLE8=Never Drive You Away
TTITLE9=I Love You Lord
TTITLE10=Oh Happy Day!
TTITLE11=Prise Him
EXTD=
EXTT0=
EXTT1=
EXTT2=
EXTT3=
EXTT4=
EXTT5=
EXTT6=
EXTT7=
EXTT8=
EXTT9=
EXTT10=
EXTT11=
PLAYORDER=
